<svg xmlns="http://www.w3.org/2000/svg"><symbol id="female" viewBox="0 0 1000 1000"><path d="M557.44 890.82H442.56v-88h-81V687.91h81V624.4a260.72 260.72 0 1 1 114.88 0v63.5h81v114.89h-81zm-84.88-30h54.88v-88h81v-54.91h-81V599.49l12.43-2.16a230.74 230.74 0 1 0-79.74 0l12.43 2.16v118.42h-81v54.88h81zM500 531.4c-89 0-161.43-72.4-161.43-161.4S411 208.55 500 208.55 661.43 281 661.43 370 589 531.4 500 531.4zm0-292.86c-72.47 0-131.43 59-131.43 131.43S427.53 501.4 500 501.4s131.43-59 131.43-131.43S572.47 238.55 500 238.55z"/></symbol><symbol id="heart" viewBox="0 0 1000 1000"><path d="M489.74 777.11L233.88 457a171.83 171.83 0 0 1-43.24-114.05c0-94.89 77.2-172.08 172.08-172.08A172.34 172.34 0 0 1 500 239.14a172.34 172.34 0 0 1 137.27-68.31c94.89 0 172.08 77.2 172.08 172.08a171.82 171.82 0 0 1-43.43 114.27zm-127-576.28c-78.35 0-142.08 63.74-142.08 142.08a141.85 141.85 0 0 0 35.92 94.41l.51.61 233.54 292.24 252.8-292.84a141.86 141.86 0 0 0 35.92-94.42c0-78.35-63.74-142.08-142.08-142.08a142.32 142.32 0 0 0-124.17 73L500 297.31l-13.1-23.49a142.33 142.33 0 0 0-124.17-72.99z"/></symbol><symbol id="left" viewBox="0 0 1000 1000"><path d="M515.94 811.82L138.13 500l377.81-311.82v165.21h337.37v293.22H515.94zM185.26 500l300.68 248.16V616.61h337.37V383.39H485.94V251.84z"/></symbol><symbol id="logo" viewBox="0 0 1000 1000"><path d="M482 164.63q4 0 7.89.2c19.8 1 39.91 5.58 56.3 16.7 23.64 16.1 37.07 44.95 37.5 73.47s-11.19 56.57-29.09 78.81c40.58-42.85 95.18-71.06 152.52-85 15.13-3.65 30.73-6.37 46.24-6.37a115.12 115.12 0 0 1 21.45 1.93c22.41 4.24 43.91 17.1 54.3 37.34C844.9 312 832 349.84 811 376.69c-29.79 38.1-73.47 62.32-115.88 85.49L442.79 600.07A411.53 411.53 0 0 0 375 425.21c-20.81-30.66-46.75-59.78-54.13-96.11C301.42 234.69 396 164.64 482 164.63m0-30c-29.2 0-59.35 6.78-87.2 19.6-28.38 13.06-53 31.83-71.32 54.26A156.17 156.17 0 0 0 293.46 266a147 147 0 0 0-2 69.17c7.14 35.08 27.64 63.51 45.74 88.6 4.56 6.32 8.87 12.3 13 18.33a381.53 381.53 0 0 1 62.85 162.11l6 42.93 38-20.79 252.46-137.84c42.68-23.32 91.06-49.76 125.13-93.34 13.91-17.78 23.74-37.79 28.44-57.85 5.84-25 3.33-49-7.25-69.34a96.45 96.45 0 0 0-32.73-35.91 117.34 117.34 0 0 0-42.64-17.13 145.79 145.79 0 0 0-27-2.45c-16 0-32.91 2.29-53.28 7.2a369.13 369.13 0 0 0-86.45 32.6 127 127 0 0 0-13.13-52.05 113.8 113.8 0 0 0-37.43-43.51c-19.25-13.06-43.35-20.4-71.63-21.83-3.1-.16-6.26-.24-9.4-.24zM288.41 879.65a113.33 113.33 0 0 1-21.79-2c-18.71-3.67-33.84-12.17-43.74-24.57-12.26-15.35-22.11-43.4.63-89.85 7.39-15.15 26.11-47.87 49.38-74.26 13-14.77 25.82-25.69 38-32.45 16.75-9.28 32.66-11.08 47.29-5.36 16 6.2 29.09 21.24 39 44.69 7.32 16.79 8.35 34.5 9.25 50.12 1 16.67 2.13 35.6-1.83 54.21-4.06 19.13-15.08 36.51-31.86 50.25-14.58 11.93-32.9 20.75-53 25.51a136.75 136.75 0 0 1-31.33 3.71zm52.65-201.7c-8.82 0-23.54 5.72-45.67 30.82-21.15 24-38.2 53.77-44.93 67.59-8.75 17.87-16.56 42.42-4.14 58 11.31 14.15 38.06 19.13 66.58 12.38 15.46-3.66 30-10.6 40.9-19.53 11.61-9.51 18.85-20.7 21.52-33.28 3.12-14.64 2.16-30.69 1.23-46.2-.8-13.81-1.62-28.05-6.82-39.95l-.07-.15c-6.59-15.54-14.31-25.4-22.34-28.51a16.91 16.91 0 0 0-6.25-1.17zm-171.68-40.66c-20.51 0-33.89-7-41.1-12.33-16.87-12.46-26.64-33.31-29.85-63.72a85.5 85.5 0 0 1 1-29.88l.14-.65.19-.63a76.75 76.75 0 0 1 20.78-33.46 130.09 130.09 0 0 1 82.74-38.45h.16c27-1.79 66 6.55 87.81 29a57.47 57.47 0 0 1 16.87 38.37c1 24.37-12.68 48.85-39.69 70.79-23.16 18.81-50.05 31-67.49 36a112.29 112.29 0 0 1-31.56 4.96zm-40.75-99.08a55.56 55.56 0 0 0-.47 19l.08.64c2.26 21.72 8.1 35.79 17.87 43 9.93 7.34 27.27 8.38 46.39 2.78 14-4.08 37.28-14.53 57-30.54 11-9 29.46-26.9 28.63-46.22a27.56 27.56 0 0 0-8.13-18.49l-.22-.22c-10.69-11.07-36.83-21.85-64.29-20.06a100.1 100.1 0 0 0-63.76 29.76l-.48.47a46.71 46.71 0 0 0-12.62 19.88zm640.19 242.62a88.49 88.49 0 0 1-10.13-.58c-37.59-4.34-72.5-30.79-91.09-69l-.09-.19a214.41 214.41 0 0 1-15.83-47.55c-6.61-30.62 5.41-60.73 31.39-78.61 26.36-18.14 59.3-18.59 86-1.16 32.8 21.39 53.5 37 61.54 46.45 22.78 26.48 32.1 59.22 24.93 87.6-5 19.79-18.23 37.13-37.19 48.84a94.6 94.6 0 0 1-49.53 14.2zm-74.2-82.63c14 28.62 40.45 49.12 67.51 52.25a58.24 58.24 0 0 0 6.69.38c26.27 0 51.74-17.38 57.58-40.43 3.69-14.6.74-38.22-18.61-60.7l-.07-.08c-2.17-2.55-12.54-13-55.1-40.79-19.45-12.71-39.89-7.94-52.54.76-12.36 8.51-23.87 25.48-19.06 47.61v.15a184.38 184.38 0 0 0 13.6 40.85zM585.58 872.84c-16.5 0-34.91-5.08-53.71-15-23.57-12.47-45-31.44-55.93-49.51-18.64-30.81-10.28-66.37 23.54-100.12 13.23-13.34 33.22-32.08 53.38-40.09 19.24-7.63 32.22-3 39.72 2.31l.86.65A67.56 67.56 0 0 1 613 697.23c8.89 17.8 18.91 39 26.17 62 10.37 32.79 11.59 58.19 3.73 77.67-6.16 15.27-18.1 26.4-34.53 32.21a68.06 68.06 0 0 1-22.79 3.73zM563.92 696c-16.67 6.63-36.64 26.76-43.2 33.38-23.8 23.76-30.21 45.07-19.12 63.42 8.15 13.48 25.54 28.6 44.29 38.52 20.24 10.71 39.37 14.19 52.47 9.55 8.44-3 13.75-7.8 16.72-15.16 5-12.39 3.44-32.24-4.51-57.39-6.7-21.19-16.22-41.27-24.64-58.12l-.47-1A37.47 37.47 0 0 0 575 694.76c-2.87-1.62-8.14.05-11.1 1.22z"/></symbol><symbol id="male" viewBox="0 0 1000 1000"><path d="M442.83 815.51a260.8 260.8 0 1 1 139.29-481.32l44.88-44.9-67.57-67.59 262-40.22-46.3 256-66.91-66.91-44.91 44.9a260.83 260.83 0 0 1-220.48 400.04zm-.09-491.58q-9.38 0-18.79.76a230.74 230.74 0 1 0 207.84 97.45l-7.26-10.32 83.73-83.73 47.6 47.6 28.61-158.19-161.94 24.86 46.92 46.92L585.71 373l-10.32-7.26a230.85 230.85 0 0 0-132.66-41.81zm.09 392.21a160.37 160.37 0 0 1-114.15-47.28c-62.94-62.94-62.94-165.35 0-228.29a161.43 161.43 0 0 1 228.29 0c62.94 62.94 62.94 165.35 0 228.29a160.37 160.37 0 0 1-114.14 47.28zm0-292.86a131.43 131.43 0 1 0 92.93 38.49 130.57 130.57 0 0 0-92.93-38.48z"/></symbol><symbol id="right" viewBox="0 0 1000 1000"><path d="M484.06 811.82V646.61H146.69V353.39h337.37V188.18L861.87 500zM176.69 616.61h337.37v131.55L814.74 500 514.06 251.84v131.55H176.69z"/></symbol><symbol id="settings" viewBox="0 0 1000 1000"><defs><style>.cls-1{fill:none;stroke:#000;stroke-linecap:round;stroke-linejoin:round;stroke-width:0}</style></defs><path d="M499.56 494.82l.02.02m.84.01l.03-.05" class="cls-1"/><path d="M500.51 494.31l-.08.47.52-.84-.44.37zm-.12.69v.03-.03zm-.01.06v.01h.01l-.01-.01zm-.1-.23l.07-.03-.05-.31-.15.12.13.22zm.04.18l-.04-.03-.08.02.11.04.01-.03zm-.71-.03v.05l.01-.03-.01-.02zm.02.07l-.03.03.03-.01v-.02zm-.1-.29l.05.02-.08-.46-.44-.36.47.8zm.96.84h-.2l-.07.36.48.83-.21-1.19zm-.28-1.62l-.21-1.2-.21 1.2.21.37.21-.37zm-.37.63l-.14-.12-.06.31.08.03.12-.22zm0 .26l.16.06.16-.05-.16-.14-.16.13zm-.17.14l.02.04.1-.04-.04-.03-.08.03zm-.17.6l-.2 1.18.49-.84-.07-.35-.22.01z"/><path d="M500 893.7a400.1 400.1 0 0 1-69.87-6.14l-14.72-2.62 14.84-85A307.31 307.31 0 0 1 355.2 772L312 846.7l-13-7.7a396.84 396.84 0 0 1-105.93-90.83l-9.37-11.45 66.08-55.58a308.59 308.59 0 0 1-38.45-69.26l-81 29.58-5-14.41a395.62 395.62 0 0 1-21.77-129.8c0-1.75 0-3.48.06-5.22l.26-16 86.34-.09a308.66 308.66 0 0 1 15-76.31l-81.09-29.42 5.44-14.25a395.07 395.07 0 0 1 69.91-117.18l9.66-11.22L275.27 283a310.4 310.4 0 0 1 59.25-48.49l-43.3-74.61 13.16-7.48a393.09 393.09 0 0 1 127.35-45.7l14.74-2.56 15 85a313.34 313.34 0 0 1 76.13-.16l14.75-85 14.75 2.51a393.07 393.07 0 0 1 127.5 45.31l13.18 7.44L664.7 234a310.46 310.46 0 0 1 59.39 48.32l66-55.65 9.69 11.19A395.14 395.14 0 0 1 870 354.78l5.52 14.22-81 29.67a308.64 308.64 0 0 1 15.21 76.46l86.33-.35.28 14.78c0 2.5.1 5.08.1 7.7A395.66 395.66 0 0 1 874.8 626.7l-5 14.42-81-29.5a308.5 308.5 0 0 1-38.4 69.33l66.12 55.53-9.36 11.46a396.84 396.84 0 0 1-105.83 90.91l-13 7.69L645 771.87a307.27 307.27 0 0 1-75 28l14.93 85-14.72 2.63a400.1 400.1 0 0 1-70.21 6.2zm-49.84-33.36a372.26 372.26 0 0 0 100 0L535.38 776l14.7-2.65a277.91 277.91 0 0 0 92.92-34.7l13-7.74L698.91 805a366.49 366.49 0 0 0 75.39-64.83l-65.54-55 9.24-11.45a279.09 279.09 0 0 0 47.61-86.15l4.93-14.51 80.53 29.32a365.76 365.76 0 0 0 15.24-97.47l-85.59.35-.34-14.71a279.12 279.12 0 0 0-19.07-95.35l-5.58-14.27 80.47-29.48a364.84 364.84 0 0 0-49.68-82.57L721.14 324l-9.7-11.11A280.91 280.91 0 0 0 637 252.43L623.73 245l42.78-74.23a362.75 362.75 0 0 0-89.77-31.88l-14.63 84.36-14.74-2.51a282.57 282.57 0 0 0-95.58.14l-14.73 2.55-14.9-84.32a362.73 362.73 0 0 0-89.66 32.15l43 74.1-13.22 7.46A280.94 280.94 0 0 0 288 313.56l-9.66 11.14-65.59-55a364.72 364.72 0 0 0-49.46 82.75l80.57 29.23-5.53 14.32a279.18 279.18 0 0 0-18.76 95.2l-.31 14.67-85.59.09A365.64 365.64 0 0 0 149 602.73l80.5-29.39 4.95 14.51a279.11 279.11 0 0 0 47.67 86.07l9.29 11.44-65.49 55.1a366.44 366.44 0 0 0 75.46 64.77L344.21 731l13 7.73a277.9 277.9 0 0 0 92.92 34.59l14.7 2.63zm48.9-198.91c-89 0-161.43-72.42-161.43-161.43s72.42-161.43 161.43-161.43S660.49 411 660.49 500s-72.42 161.43-161.43 161.43zm0-292.86c-72.47 0-131.43 59-131.43 131.43s59 131.43 131.43 131.43 131.43-59 131.43-131.43-58.96-131.43-131.43-131.43z"/></symbol></svg>