<svg id="Layer_1" data-name="Layer 1" xmlns="http://www.w3.org/2000/svg" viewBox="0 0 257 257"><defs><style>.cls-1{fill:#be1e2d;}</style></defs><title>logo</title><path class="cls-1" d="M140.8,86.81l0,0c12.15-12.83,28.5-21.28,45.67-25.44,6.63-1.6,13.56-2.6,20.27-1.33S219.89,65.16,223,71.22c4.71,9.05.85,20.39-5.44,28.43-8.92,11.41-22,18.66-34.7,25.6l-75.56,41.29A123.23,123.23,0,0,0,87,114.18C80.77,105,73,96.28,70.79,85.4c-6-29.14,24.27-50.53,50.63-49.19,5.93.3,11.95,1.67,16.86,5,7.08,4.82,11.1,13.46,11.23,22S146.16,80.15,140.8,86.81Z"/><path class="cls-1" d="M91.81,171.56c-11-4.31-24.85,18-28.75,26-15.41,31.48,33.28,29,38,6.76.87-4.08.63-8.3.38-12.47-.22-3.8-.47-7.69-2-11.19C97.24,175.47,94.62,172.65,91.81,171.56Z"/><path class="cls-1" d="M73.88,130c-4.53-4.69-13-6.5-18.91-6.11a28.59,28.59,0,0,0-18.23,8.5,15.31,15.31,0,0,0-4.2,6.73,17.58,17.58,0,0,0-.19,6.19c.52,5,1.91,10.32,5.93,13.29s9.86,2.71,14.78,1.27C61.89,157.29,77.47,148,77,137.07A10.59,10.59,0,0,0,73.88,130Z"/><path class="cls-1" d="M193.15,154.47c-11.41-7.46-26.35,2.6-23.46,15.92a49.46,49.46,0,0,0,3.66,11c3.77,7.75,11.13,14.08,19.7,15.07s17.88-4.37,20-12.73c1.63-6.45-1.07-13.38-5.41-18.42C205.68,163,199.73,158.76,193.15,154.47Z"/><path class="cls-1" d="M142.88,175.77c-4.68,1.86-9.66,6.77-12,9.13-5.45,5.44-9.79,12.86-5.29,20.3,4.7,7.77,19,16.87,28.46,13.52,14.82-5.24,3.36-28.91-1-37.63a13,13,0,0,0-3.82-5.16C147.45,174.68,145.2,174.85,142.88,175.77Z"/></svg>