<svg xmlns="http://www.w3.org/2000/svg"><symbol id="facebook" viewBox="0 0 1000 1000"><path d="M749.36 1.1H250.64C113.24 1.1 1.46 112.51 1.46 249.44v501.11c0 136.93 111.79 248.35 249.19 248.35h319.88c.05-2.08.12-4.15.12-6.23v-409.9H466.71c-.16-2.92-.39-5.07-.39-7.23 0-43.1.1-86.2-.15-129.3 0-6 1.75-7.47 7.55-7.42 29.77.26 59.54-.08 89.31.24 6.35.07 7.7-2 7.73-8 .17-38.65 0-77.32 1.37-115.93 1-28.1 6.89-55.45 19.92-80.84 14.3-27.87 36.55-46.86 66.09-56.25 16.38-5.21 33.7-7.44 50.6-11 2.36-.5 4.71-1.06 7.06-1.59h140c-.15 2.65-.43 5.3-.43 7.95 0 42.86-.13 85.73.13 128.59 0 6-1.75 7.47-7.53 7.41-23.31-.24-46.64-.21-69.95.23a143.63 143.63 0 0 0-23.74 2.85c-14.71 2.77-25.42 14.7-26 31.26-1.14 30.17-1 60.38-1.54 90.57-.1 5.5 3.58 4.57 6.77 4.57H856l-15.16 143.73h-114v9q-.07 200.54-.15 401.09c0 2.07-.1 4.15-.18 6.22h22.85c137.4 0 249.18-111.42 249.18-248.35V249.44C998.54 112.51 886.76 1.1 749.36 1.1z"/></symbol><symbol id="instagram" viewBox="0 0 1000 1000"><path d="M749.36 1.1H250.64C113.24 1.1 1.46 112.51 1.46 249.44v501.11c0 136.93 111.79 248.35 249.19 248.35h498.71c137.4 0 249.18-111.42 249.18-248.35V249.44C998.54 112.5 886.76 1.1 749.36 1.1zm156.9 749.46c0 86.21-70.38 156.37-156.89 156.37H250.64c-86.51 0-156.9-70.15-156.9-156.37V426.9H290.9a233.85 233.85 0 0 0-22.49 100.22C268.41 657.2 374.59 763 505.1 763s236.7-105.8 236.7-235.88a233.8 233.8 0 0 0-22.49-100.22h186.94v323.65zM406.85 527.12c0-54 44.08-97.92 98.26-97.92s98.26 43.93 98.26 97.92S559.29 625 505.1 625s-98.26-43.92-98.26-97.93zm499.41-192.2H642.08a236.54 236.54 0 0 0-273.95 0H93.75v-85.48c0-86.22 70.38-156.37 156.9-156.37h498.71c86.51 0 156.89 70.14 156.89 156.37v85.48zm-100-186.06H720.7a27.72 27.72 0 0 0-27.7 27.59v85.27a27.72 27.72 0 0 0 27.69 27.59h85.55a27.72 27.72 0 0 0 27.69-27.59v-85.27a27.72 27.72 0 0 0-27.69-27.59z"/></symbol><symbol id="twitter" viewBox="0 0 1000 1000"><path d="M749.36 1.1H250.64C113.24 1.1 1.46 112.5 1.46 249.44v501.11c0 136.93 111.79 248.35 249.19 248.35h498.71c137.4 0 249.18-111.42 249.18-248.35V249.44C998.54 112.5 886.76 1.1 749.36 1.1zm123.27 282.06c-17.81 18-36.32 35.22-55 52.33-3.4 3.12-5 5.69-4.87 10.23 2.18 119-35.44 224.37-110.92 315.9C651 723.37 587.18 767.48 511.39 793.95c-61.83 21.59-125.4 28.9-190.59 24.62-75.85-5-145.68-28.18-210.2-68a6.78 6.78 0 0 1-2.47-2.41 333.12 333.12 0 0 0 123.35-10.52c40.58-11.19 77.53-29.74 112-56.37-73.68-6.56-123-43.55-150.32-112.85 24.87 3.4 47.9 3.92 71.92-3-88.65-21-130.7-99.35-127.07-159.74 21.79 10.58 44.09 18.57 69.66 18.75-83.22-60.89-80.49-163-47.07-214.32q130.58 153.76 330.8 168.33c-.55-16.8-2-32.6-1.42-48.32 2.47-69.29 58.08-133.43 126.45-146.32 56.69-10.67 106.57 2.52 148.34 43.2 4.12 4 7.87 3.27 12.54 2.18a338.43 338.43 0 0 0 89-34.5c1-.58 2.16-1 4.76-2.14-12.41 37.26-34.9 64.9-65.62 86.74 29.88-2.52 57.89-11.32 86.38-21.18-6.32 8.39-11.83 17.64-19.2 25.06z"/></symbol></svg>